# xmcd
#
# Track frame offsets:
#	150
#	2465
#	17072
#	31680
#	43467
#	55255
#	68795
#	82337
#	96090
#	109845
#	121220
#	132595
#	144950
#	157307
#	172970
#	188632
#	203472
#
# Disc length: 2911 seconds
#
# Revision: 0
# Processed by: cddbd v1.5PL3 Copyright (c) Steve Scherf et al.
# Submitted via: dBpowerAMP V4.0
#
DISCID=e40b5d11
DTITLE=Blues Brothers - Take The Lead
DYEAR=1999
DGENRE=Blues
TTITLE0=Tuning Tones
TTITLE1=She Caught The Katy And Left Me A Mule To Ride
TTITLE2=She Caught The Katy And Left Me A Mule To Ride (Backing Track)
TTITLE3=Gimme Some Lovin'
TTITLE4=Gimme Some Lovin' (Backing Track)
TTITLE5=Shake A Tailfeather
TTITLE6=Shake A Tailfeather (Backing Track)
TTITLE7=Everybody Needs Somebody To Love
TTITLE8=Everybody Needs Somebody To Love (Backing Track)
TTITLE9=The Old Landmark
TTITLE10=The Old Landmark (Backing Track)
TTITLE11=Think
TTITLE12=Think (Backing Track)
TTITLE13=Minnie The Moocher
TTITLE14=Minnie The Moocher (Backing Track)
TTITLE15=Sweet Home Chicago
TTITLE16=Sweet Home Chicago (Backing Track)
EXTD=
EXTT0=
EXTT1=
EXTT2=
EXTT3=
EXTT4=
EXTT5=
EXTT6=
EXTT7=
EXTT8=
EXTT9=
EXTT10=
EXTT11=
EXTT12=
EXTT13=
EXTT14=
EXTT15=
EXTT16=
PLAYORDER=
